<mxfile host="65bd71144e">
    <diagram id="Ex4e78yeorhTX2S8gjIM" name="ページ1">
        <mxGraphModel dx="1053" dy="1732" grid="1" gridSize="10" guides="1" tooltips="1" connect="1" arrows="1" fold="1" page="1" pageScale="1" pageWidth="827" pageHeight="1169" math="0" shadow="0">
            <root>
                <mxCell id="0"/>
                <mxCell id="1" parent="0"/>
                <mxCell id="2" value="いくつかの宿場町を経由して、コンステレーションヘイムに向かいます。" style="whiteSpace=wrap;html=1;" parent="1" vertex="1">
                    <mxGeometry x="160" y="280" width="120" height="60" as="geometry"/>
                </mxCell>
                <mxCell id="3" value="誰の所有物でもない自由な町のことをファンクションヘイムと呼びます。" style="whiteSpace=wrap;html=1;" parent="1" vertex="1">
                    <mxGeometry x="160" y="170" width="120" height="60" as="geometry"/>
                </mxCell>
                <mxCell id="4" value="宿場町はたいていファンクションヘイムです。" style="whiteSpace=wrap;html=1;" parent="1" vertex="1">
                    <mxGeometry x="320" y="170" width="120" height="60" as="geometry"/>
                </mxCell>
                <mxCell id="6" value="浪人たちが住んでいます。" style="whiteSpace=wrap;html=1;" parent="1" vertex="1">
                    <mxGeometry x="480" y="170" width="120" height="60" as="geometry"/>
                </mxCell>
                <mxCell id="7" value="浪人とは選ばれなかった人たちのことです。" style="whiteSpace=wrap;html=1;" parent="1" vertex="1">
                    <mxGeometry x="640" y="170" width="120" height="60" as="geometry"/>
                </mxCell>
                <mxCell id="8" value="たいていは宿場町で働いています。" style="whiteSpace=wrap;html=1;" parent="1" vertex="1">
                    <mxGeometry x="800" y="170" width="120" height="60" as="geometry"/>
                </mxCell>
                <mxCell id="9" value="コンステレーションヘイムに続く街道沿いのとある宿場町にやって来ました。" style="whiteSpace=wrap;html=1;" parent="1" vertex="1">
                    <mxGeometry x="320" y="275" width="140" height="70" as="geometry"/>
                </mxCell>
                <mxCell id="10" value="大枠の説明" style="rhombus;whiteSpace=wrap;html=1;" parent="1" vertex="1">
                    <mxGeometry x="40" y="160" width="80" height="80" as="geometry"/>
                </mxCell>
                <mxCell id="11" value="具体的なエピソード" style="rhombus;whiteSpace=wrap;html=1;" parent="1" vertex="1">
                    <mxGeometry x="30" y="265" width="100" height="100" as="geometry"/>
                </mxCell>
                <mxCell id="12" value="今日はここで休むことにします。" style="whiteSpace=wrap;html=1;" parent="1" vertex="1">
                    <mxGeometry x="520" y="280" width="120" height="60" as="geometry"/>
                </mxCell>
                <mxCell id="13" value="" style="endArrow=none;html=1;" parent="1" edge="1">
                    <mxGeometry width="50" height="50" relative="1" as="geometry">
                        <mxPoint x="960" y="580" as="sourcePoint"/>
                        <mxPoint x="960" y="40" as="targetPoint"/>
                        <Array as="points">
                            <mxPoint x="960" y="410"/>
                        </Array>
                    </mxGeometry>
                </mxCell>
                <mxCell id="14" value="今日泊まる宿を探しながら町を歩いていると、セントベレス教団の二人の営業マンが仕事をしているシーンに遭遇しました。" style="whiteSpace=wrap;html=1;" parent="1" vertex="1">
                    <mxGeometry x="1000" y="270" width="150" height="80" as="geometry"/>
                </mxCell>
                <mxCell id="15" value="セリフ回し" style="rhombus;whiteSpace=wrap;html=1;" parent="1" vertex="1">
                    <mxGeometry x="40" y="380" width="80" height="80" as="geometry"/>
                </mxCell>
                <mxCell id="16" value="「こんにちは、セントベレス教団営業部のアルカテイルと」&lt;br&gt;「アシッドテイルです」&lt;br&gt;「「宜しくお願いします」」" style="whiteSpace=wrap;html=1;" parent="1" vertex="1">
                    <mxGeometry x="1000" y="375" width="150" height="90" as="geometry"/>
                </mxCell>
                <mxCell id="17" value="ピュアフレーム・ユピテル・カオス" style="text;html=1;align=center;verticalAlign=middle;resizable=0;points=[];autosize=1;strokeColor=none;fillColor=none;" parent="1" vertex="1">
                    <mxGeometry x="1220" y="960" width="220" height="30" as="geometry"/>
                </mxCell>
                <mxCell id="18" value="純粋な自我が、カオスに汚染されることにより、ユピテルが誕生する" style="text;html=1;align=center;verticalAlign=middle;resizable=0;points=[];autosize=1;strokeColor=none;fillColor=none;" parent="1" vertex="1">
                    <mxGeometry x="1220" y="990" width="400" height="30" as="geometry"/>
                </mxCell>
                <mxCell id="19" value="克人は、ワシを助ける。そしてワシを仲間にする" style="text;html=1;align=center;verticalAlign=middle;resizable=0;points=[];autosize=1;strokeColor=none;fillColor=none;" parent="1" vertex="1">
                    <mxGeometry x="1220" y="1020" width="290" height="30" as="geometry"/>
                </mxCell>
                <mxCell id="20" value="セントレベス教団は、ワシを捕獲していた。克人はそれを助ける" style="text;html=1;align=center;verticalAlign=middle;resizable=0;points=[];autosize=1;strokeColor=none;fillColor=none;" parent="1" vertex="1">
                    <mxGeometry x="1222" y="1050" width="370" height="30" as="geometry"/>
                </mxCell>
                <mxCell id="21" value="FUNCTION TOMORROW" style="text;html=1;align=center;verticalAlign=middle;resizable=0;points=[];autosize=1;strokeColor=none;fillColor=none;" parent="1" vertex="1">
                    <mxGeometry x="1222" y="930" width="160" height="30" as="geometry"/>
                </mxCell>
                <mxCell id="22" value="&lt;div style=&quot;color: rgb(204, 204, 204); background-color: rgb(31, 31, 31); font-family: Consolas, &amp;quot;Courier New&amp;quot;, monospace; font-size: 14px; line-height: 19px;&quot;&gt;セントベレス教団とは、五年前にユグドラシルの管理者権限を獲得し、世界の運転手に就任した宗教団体です。&lt;/div&gt;" style="whiteSpace=wrap;html=1;" parent="1" vertex="1">
                    <mxGeometry x="962.5" y="167.5" width="207.5" height="82.5" as="geometry"/>
                </mxCell>
                <mxCell id="23" value="&lt;span style=&quot;background-color: rgb(31, 31, 31); color: rgb(204, 204, 204); font-family: Consolas, &amp;quot;Courier New&amp;quot;, monospace; font-size: 14px;&quot;&gt;街頭で、電話口で、ネット記事で、あらゆる場所で営業マンが活動しています。&lt;/span&gt;" style="whiteSpace=wrap;html=1;" parent="1" vertex="1">
                    <mxGeometry x="1220" y="165" width="170" height="70" as="geometry"/>
                </mxCell>
                <mxCell id="24" value="とある大手広告代理店のレポートによると、昨年、世の中に出稿された広告のうち、およそ30%がセントベレス教団絡みの広告だそうです。" style="whiteSpace=wrap;html=1;" parent="1" vertex="1">
                    <mxGeometry x="1440" y="158.75" width="160" height="82.5" as="geometry"/>
                </mxCell>
                <mxCell id="25" value="二人の営業マンは、人材をスカウトして去って行きました。" style="whiteSpace=wrap;html=1;" parent="1" vertex="1">
                    <mxGeometry x="1201" y="280" width="120" height="60" as="geometry"/>
                </mxCell>
                <mxCell id="26" value="「今、お時間大丈夫でしょうか？」" style="whiteSpace=wrap;html=1;" parent="1" vertex="1">
                    <mxGeometry x="1015" y="465" width="120" height="60" as="geometry"/>
                </mxCell>
                <mxCell id="27" value="「ありがとうございます」" style="whiteSpace=wrap;html=1;" parent="1" vertex="1">
                    <mxGeometry x="1015" y="585" width="120" height="60" as="geometry"/>
                </mxCell>
                <mxCell id="28" value="「現在、コンステレーションに関してお困りのことはありますか？」" style="whiteSpace=wrap;html=1;" parent="1" vertex="1">
                    <mxGeometry x="1015" y="645" width="120" height="60" as="geometry"/>
                </mxCell>
                <mxCell id="29" value="「ないです」" style="whiteSpace=wrap;html=1;" parent="1" vertex="1">
                    <mxGeometry x="1015" y="705" width="120" height="60" as="geometry"/>
                </mxCell>
                <mxCell id="30" value="「社会化に関してお困りのことは？」" style="whiteSpace=wrap;html=1;" parent="1" vertex="1">
                    <mxGeometry x="1015" y="765" width="120" height="60" as="geometry"/>
                </mxCell>
                <mxCell id="31" value="「ちょっとだけなら」" style="whiteSpace=wrap;html=1;" parent="1" vertex="1">
                    <mxGeometry x="1015" y="525" width="120" height="60" as="geometry"/>
                </mxCell>
                <mxCell id="32" value="「いえ、特にはーー」" style="whiteSpace=wrap;html=1;" parent="1" vertex="1">
                    <mxGeometry x="1015" y="825" width="120" height="60" as="geometry"/>
                </mxCell>
                <mxCell id="33" value="「本当ですか？」" style="whiteSpace=wrap;html=1;" parent="1" vertex="1">
                    <mxGeometry x="1015" y="920" width="120" height="60" as="geometry"/>
                </mxCell>
                <mxCell id="34" value="「あぁーー実は、仕事を探してます。先日まで引きこもっておりまして、それでーー」" style="whiteSpace=wrap;html=1;" parent="1" vertex="1">
                    <mxGeometry x="1012.5" y="980" width="125" height="70" as="geometry"/>
                </mxCell>
                <mxCell id="35" value="「ふむんーーお名前を伺っても？」" style="whiteSpace=wrap;html=1;" parent="1" vertex="1">
                    <mxGeometry x="1015" y="1050" width="120" height="60" as="geometry"/>
                </mxCell>
                <mxCell id="36" value="「パイモンです」" style="whiteSpace=wrap;html=1;" parent="1" vertex="1">
                    <mxGeometry x="1015" y="1109" width="120" height="60" as="geometry"/>
                </mxCell>
                <mxCell id="37" value="「それじゃあパイモン、君をセントベレス教団七十二柱の一柱に任命する」" style="whiteSpace=wrap;html=1;" parent="1" vertex="1">
                    <mxGeometry x="1015" y="1169" width="120" height="60" as="geometry"/>
                </mxCell>
                <mxCell id="38" value="「よかったな、仕事が見つかったじゃないか」" style="whiteSpace=wrap;html=1;" parent="1" vertex="1">
                    <mxGeometry x="1015" y="1229" width="120" height="60" as="geometry"/>
                </mxCell>
                <mxCell id="39" value="「あーーはい、ありがとうございます」" style="whiteSpace=wrap;html=1;" parent="1" vertex="1">
                    <mxGeometry x="1015" y="1289" width="120" height="60" as="geometry"/>
                </mxCell>
                <mxCell id="40" value="「お時間いただきありがとうございました。それでは、また後日ご連絡いたします」" style="whiteSpace=wrap;html=1;" parent="1" vertex="1">
                    <mxGeometry x="1007.5" y="1349" width="135" height="61" as="geometry"/>
                </mxCell>
                <mxCell id="42" value="" style="line;strokeWidth=2;direction=south;html=1;" parent="1" vertex="1">
                    <mxGeometry x="1640" y="120" width="10" height="490" as="geometry"/>
                </mxCell>
                <mxCell id="44" value="宿を決めました。手続きを行いました。食事は外で取ることにします。" style="whiteSpace=wrap;html=1;" parent="1" vertex="1">
                    <mxGeometry x="1680" y="280" width="120" height="60" as="geometry"/>
                </mxCell>
                <mxCell id="45" value="「一般的に、何者かになるには意志の強さが必要だと謂われる。しかし、ミメイシスの方がコスパ良く、タイパ良く何者かになれるんだ」" style="text;html=1;align=center;verticalAlign=middle;resizable=0;points=[];autosize=1;strokeColor=none;fillColor=none;" parent="1" vertex="1">
                    <mxGeometry x="1220" y="1080" width="770" height="30" as="geometry"/>
                </mxCell>
                <mxCell id="46" value="「そもそも何故、何者かになりたいと願うのか。それは、終わりなき日常に終止符を打ち、新たな日常への移行を望むからである」" style="text;html=1;align=center;verticalAlign=middle;resizable=0;points=[];autosize=1;strokeColor=none;fillColor=none;" parent="1" vertex="1">
                    <mxGeometry x="1220" y="1110" width="730" height="30" as="geometry"/>
                </mxCell>
                <mxCell id="47" value="「ミメイシスを与える存在を権力者と呼ぶ。権力者は、キズナグラム（ビーチ）で繋がる先の存在へ、感染させることができる」" style="text;html=1;align=center;verticalAlign=middle;resizable=0;points=[];autosize=1;strokeColor=none;fillColor=none;" parent="1" vertex="1">
                    <mxGeometry x="1220" y="1140" width="720" height="30" as="geometry"/>
                </mxCell>
                <mxCell id="48" value="「理解できたか？　我らセントベレス教団に入会すれば、最強の権力者である教祖様と繋がり、特別な存在へと至ることができるのである」" style="text;html=1;align=center;verticalAlign=middle;resizable=0;points=[];autosize=1;strokeColor=none;fillColor=none;" parent="1" vertex="1">
                    <mxGeometry x="1220" y="1170" width="780" height="30" as="geometry"/>
                </mxCell>
                <mxCell id="49" value="飯屋を探します。" style="whiteSpace=wrap;html=1;" parent="1" vertex="1">
                    <mxGeometry x="1840" y="280" width="120" height="60" as="geometry"/>
                </mxCell>
                <mxCell id="50" value="" style="whiteSpace=wrap;html=1;" parent="1" vertex="1">
                    <mxGeometry x="160" y="390" width="120" height="60" as="geometry"/>
                </mxCell>
                <mxCell id="51" value="&lt;div style=&quot;color: rgb(204, 204, 204); background-color: rgb(31, 31, 31); font-family: Consolas, &amp;quot;Courier New&amp;quot;, monospace; font-size: 14px; line-height: 19px;&quot;&gt;朱雀がコーヒーハウスに入りたいと希望したので、コーヒーハウスを探して入ります。&lt;/div&gt;" style="whiteSpace=wrap;html=1;" parent="1" vertex="1">
                    <mxGeometry x="2000" y="275" width="230" height="70" as="geometry"/>
                </mxCell>
                <mxCell id="53" value="「裁定者ドライアドの要求は、七十二個の国のそれぞれで、一人ずつ、絶望から立ち上がった人間を調達することです」" style="whiteSpace=wrap;html=1;" parent="1" vertex="1">
                    <mxGeometry x="2497.5" y="1139" width="250" height="150" as="geometry"/>
                </mxCell>
                <mxCell id="54" value="&lt;div style=&quot;color: rgb(204, 204, 204); background-color: rgb(31, 31, 31); font-family: Consolas, &amp;quot;Courier New&amp;quot;, monospace; font-size: 14px; line-height: 19px;&quot;&gt;あれは何してるんだ？　と克人が朱雀に尋ねました。&lt;/div&gt;" style="whiteSpace=wrap;html=1;" parent="1" vertex="1">
                    <mxGeometry x="1360" y="260" width="160" height="100" as="geometry"/>
                </mxCell>
                <mxCell id="55" value="&lt;div style=&quot;color: rgb(204, 204, 204); background-color: rgb(31, 31, 31); font-family: Consolas, &amp;quot;Courier New&amp;quot;, monospace; font-size: 14px; line-height: 19px;&quot;&gt;「見て判らないか？　ざぁ～こ。セントベレス教団七十二柱の人材をスカウトしているんだよ」&lt;/div&gt;" style="whiteSpace=wrap;html=1;" parent="1" vertex="1">
                    <mxGeometry x="1321" y="381.25" width="240" height="77.5" as="geometry"/>
                </mxCell>
                <mxCell id="56" value="&lt;div style=&quot;color: rgb(204, 204, 204); background-color: rgb(31, 31, 31); font-family: Consolas, &amp;quot;Courier New&amp;quot;, monospace; font-size: 14px; line-height: 19px;&quot;&gt;「何のために？」&lt;/div&gt;" style="whiteSpace=wrap;html=1;" parent="1" vertex="1">
                    <mxGeometry x="1380" y="460" width="120" height="60" as="geometry"/>
                </mxCell>
                <mxCell id="57" value="&#10;&lt;div style=&quot;color: rgb(204, 204, 204); background-color: rgb(31, 31, 31); font-family: Consolas, &amp;quot;Courier New&amp;quot;, monospace; font-weight: normal; font-size: 14px; line-height: 19px;&quot;&gt;&lt;div&gt;&lt;span style=&quot;color: #cccccc;&quot;&gt;「――一年前の八大竜王の襲撃で甚大な被害が出たらしくてな。その補填をするためだろうよ」&lt;/span&gt;&lt;/div&gt;&lt;/div&gt;&#10;&#10;" style="whiteSpace=wrap;html=1;" parent="1" vertex="1">
                    <mxGeometry x="1326" y="515" width="230" height="80" as="geometry"/>
                </mxCell>
                <mxCell id="58" value="&lt;div style=&quot;color: rgb(204, 204, 204); background-color: rgb(31, 31, 31); font-family: Consolas, &amp;quot;Courier New&amp;quot;, monospace; font-size: 14px; line-height: 19px;&quot;&gt;「――何で彼奴をスカウトしたんだろうな」&lt;/div&gt;" style="whiteSpace=wrap;html=1;" parent="1" vertex="1">
                    <mxGeometry x="1284.75" y="595" width="312.5" height="60" as="geometry"/>
                </mxCell>
                <mxCell id="59" value="&lt;div style=&quot;color: rgb(204, 204, 204); background-color: rgb(31, 31, 31); font-family: Consolas, &amp;quot;Courier New&amp;quot;, monospace; font-size: 14px; line-height: 19px;&quot;&gt;「さぁね。何か事情があるんだろうけど」&lt;/div&gt;" style="whiteSpace=wrap;html=1;" parent="1" vertex="1">
                    <mxGeometry x="1340" y="655" width="200" height="50" as="geometry"/>
                </mxCell>
                <mxCell id="60" value="&#10;&lt;div style=&quot;color: rgb(204, 204, 204); background-color: rgb(31, 31, 31); font-family: Consolas, &amp;quot;Courier New&amp;quot;, monospace; font-weight: normal; font-size: 14px; line-height: 19px;&quot;&gt;&lt;div&gt;&lt;span style=&quot;color: #cccccc;&quot;&gt;コーヒーハウスに入り、飲み物と食事を注文します。&lt;/span&gt;&lt;/div&gt;&lt;/div&gt;&#10;&#10;" style="whiteSpace=wrap;html=1;" parent="1" vertex="1">
                    <mxGeometry x="2280" y="272.5" width="180" height="75" as="geometry"/>
                </mxCell>
                <mxCell id="61" value="&lt;div style=&quot;color: rgb(204, 204, 204); background-color: rgb(31, 31, 31); font-family: Consolas, &amp;quot;Courier New&amp;quot;, monospace; font-size: 14px; line-height: 19px;&quot;&gt;先ほどの二人、営業マンのアルカテイルとアシッドテイルの会話が聞こえます。&lt;/div&gt;" style="whiteSpace=wrap;html=1;" parent="1" vertex="1">
                    <mxGeometry x="2520" y="265" width="220" height="90" as="geometry"/>
                </mxCell>
                <mxCell id="62" value="&lt;div style=&quot;color: rgb(204, 204, 204); background-color: rgb(31, 31, 31); font-family: Consolas, &amp;quot;Courier New&amp;quot;, monospace; font-size: 14px; line-height: 19px;&quot;&gt;「これで裁定者の要求には答えられるのか？」&lt;/div&gt;" style="whiteSpace=wrap;html=1;" parent="1" vertex="1">
                    <mxGeometry x="2530" y="385" width="200" height="70" as="geometry"/>
                </mxCell>
                <mxCell id="63" value="&lt;div style=&quot;color: rgb(204, 204, 204); background-color: rgb(31, 31, 31); font-family: Consolas, &amp;quot;Courier New&amp;quot;, monospace; font-size: 14px; line-height: 19px;&quot;&gt;「――俺達が手を動かす必要はないんじゃねぇのかい？」&lt;/div&gt;" style="whiteSpace=wrap;html=1;" parent="1" vertex="1">
                    <mxGeometry x="2490" y="455" width="280" height="80" as="geometry"/>
                </mxCell>
                <mxCell id="64" value="&lt;div style=&quot;color: rgb(204, 204, 204); background-color: rgb(31, 31, 31); font-family: Consolas, &amp;quot;Courier New&amp;quot;, monospace; font-size: 14px; line-height: 19px;&quot;&gt;「業務を下請けに出したとしても責任は変わらず私達にあるのですよ」&lt;/div&gt;" style="whiteSpace=wrap;html=1;" parent="1" vertex="1">
                    <mxGeometry x="2512.5" y="535" width="235" height="70" as="geometry"/>
                </mxCell>
                <mxCell id="65" value="&lt;div style=&quot;color: rgb(204, 204, 204); background-color: rgb(31, 31, 31); font-family: Consolas, &amp;quot;Courier New&amp;quot;, monospace; font-size: 14px; line-height: 19px;&quot;&gt;「いや、そこは信頼できる下請け業者をだな」&lt;/div&gt;" style="whiteSpace=wrap;html=1;" parent="1" vertex="1">
                    <mxGeometry x="2450" y="600" width="360" height="100" as="geometry"/>
                </mxCell>
                <mxCell id="66" value="&lt;div style=&quot;color: rgb(204, 204, 204); background-color: rgb(31, 31, 31); font-family: Consolas, &amp;quot;Courier New&amp;quot;, monospace; font-size: 14px; line-height: 19px;&quot;&gt;克人が横槍を入れます。&lt;/div&gt;" style="whiteSpace=wrap;html=1;" parent="1" vertex="1">
                    <mxGeometry x="2540" y="700" width="180" height="50" as="geometry"/>
                </mxCell>
                <mxCell id="67" value="&lt;div style=&quot;color: rgb(204, 204, 204); background-color: rgb(31, 31, 31); font-family: Consolas, &amp;quot;Courier New&amp;quot;, monospace; font-size: 14px; line-height: 19px;&quot;&gt;「俺がやるよ！　――その仕事、俺がやる」&lt;/div&gt;" style="whiteSpace=wrap;html=1;" parent="1" vertex="1">
                    <mxGeometry x="2540" y="750" width="180" height="50" as="geometry"/>
                </mxCell>
                <mxCell id="68" value="&lt;div style=&quot;color: rgb(204, 204, 204); background-color: rgb(31, 31, 31); font-family: Consolas, &amp;quot;Courier New&amp;quot;, monospace; font-size: 14px; line-height: 19px;&quot;&gt;「さっきアンタ等が人を勧誘してるところ、見てたんだ。ああいうのを勧誘すればいいんだろ？　簡単な仕事じゃないか」&lt;/div&gt;" style="whiteSpace=wrap;html=1;" parent="1" vertex="1">
                    <mxGeometry x="2470" y="800" width="320" height="70" as="geometry"/>
                </mxCell>
                <mxCell id="69" value="&lt;br&gt;&lt;div style=&quot;color: rgb(204, 204, 204); background-color: rgb(31, 31, 31); font-family: Consolas, &amp;quot;Courier New&amp;quot;, monospace; font-weight: normal; font-size: 14px; line-height: 19px;&quot;&gt;&lt;div&gt;&lt;span style=&quot;color: #cccccc;&quot;&gt;「いや、勧誘するだけが仕事ってわけでもねぇんだが……」&lt;/span&gt;&lt;/div&gt;&lt;/div&gt;" style="whiteSpace=wrap;html=1;" parent="1" vertex="1">
                    <mxGeometry x="2540" y="870" width="180" height="70" as="geometry"/>
                </mxCell>
                <mxCell id="70" value="&lt;div style=&quot;color: rgb(204, 204, 204); background-color: rgb(31, 31, 31); font-family: Consolas, &amp;quot;Courier New&amp;quot;, monospace; font-size: 14px; line-height: 19px;&quot;&gt;「そうなのか？　じゃあ俺ができる範囲でいいから仕事を分けてくれよ」&lt;/div&gt;" style="whiteSpace=wrap;html=1;" parent="1" vertex="1">
                    <mxGeometry x="2522.5" y="940" width="215" height="60" as="geometry"/>
                </mxCell>
                <mxCell id="71" value="&lt;div style=&quot;color: rgb(204, 204, 204); background-color: rgb(31, 31, 31); font-family: Consolas, &amp;quot;Courier New&amp;quot;, monospace; font-size: 14px; line-height: 19px;&quot;&gt;「どうしやす？　大将」&lt;/div&gt;" style="whiteSpace=wrap;html=1;" parent="1" vertex="1">
                    <mxGeometry x="2540" y="1000" width="180" height="40" as="geometry"/>
                </mxCell>
                <mxCell id="72" value="&lt;div style=&quot;color: rgb(204, 204, 204); background-color: rgb(31, 31, 31); font-family: Consolas, &amp;quot;Courier New&amp;quot;, monospace; font-size: 14px; line-height: 19px;&quot;&gt;「ふむん。どうせなら最後までやってもらいましょう。上手くいけば貴方を七十二柱の一柱に……いえ、円卓の騎士に取り立てるよう、教皇に進言することを約束します」&lt;/div&gt;" style="whiteSpace=wrap;html=1;" parent="1" vertex="1">
                    <mxGeometry x="2495" y="1040" width="270" height="90" as="geometry"/>
                </mxCell>
                <mxCell id="74" value="" style="line;strokeWidth=2;direction=south;html=1;" parent="1" vertex="1">
                    <mxGeometry x="2880" y="41.25" width="10" height="1118.75" as="geometry"/>
                </mxCell>
                <mxCell id="75" value="翌日の朝、克人と朱雀は、宿の朝食を取りながら話し合いました。" style="whiteSpace=wrap;html=1;" parent="1" vertex="1">
                    <mxGeometry x="4962" y="280" width="120" height="60" as="geometry"/>
                </mxCell>
                <mxCell id="76" value="ユグドラシルを開発したのは神だ。ユグドラシルを保守するのはドライアドだ。ユグドラシルを監視するのは天使だ。ユグドラシルを破壊するのは悪魔だ。" style="whiteSpace=wrap;html=1;" parent="1" vertex="1">
                    <mxGeometry x="3080" y="92.5" width="220" height="110" as="geometry"/>
                </mxCell>
                <mxCell id="77" value="この世界はユグドラシルによって存続している。" style="whiteSpace=wrap;html=1;" parent="1" vertex="1">
                    <mxGeometry x="2920" y="117.5" width="120" height="60" as="geometry"/>
                </mxCell>
                <mxCell id="78" value="夜眠る時の気持ちは、面白い。" style="whiteSpace=wrap;html=1;" parent="1" vertex="1">
                    <mxGeometry x="2920" y="280" width="120" height="60" as="geometry"/>
                </mxCell>
                <mxCell id="81" value="" style="line;strokeWidth=2;direction=south;html=1;" parent="1" vertex="1">
                    <mxGeometry x="4920" y="41.25" width="10" height="980" as="geometry"/>
                </mxCell>
                <mxCell id="82" value="では人間は何か。" style="whiteSpace=wrap;html=1;" parent="1" vertex="1">
                    <mxGeometry x="3630" y="117.5" width="120" height="60" as="geometry"/>
                </mxCell>
                <mxCell id="83" value="人間はエンドユーザーだ。人間は与えられた選択肢からマシなものを選ぶことしかできない。デベロッパーが用意した世界で、デベロッパーが用意した分岐点を、できるだけミスの無いように選択し続けることしかできない。" style="whiteSpace=wrap;html=1;" parent="1" vertex="1">
                    <mxGeometry x="3800" y="82.5" width="310" height="130" as="geometry"/>
                </mxCell>
                <mxCell id="84" value="ユグドラシルは楔だ。エンドユーザーは楔に繋がれている。他の楔に繋ぎ直すことはできない。この楔しか無いのだ。" style="whiteSpace=wrap;html=1;" parent="1" vertex="1">
                    <mxGeometry x="3360" y="92.5" width="220" height="110" as="geometry"/>
                </mxCell>
                <mxCell id="85" value="デベロッパーは違う。" style="whiteSpace=wrap;html=1;" parent="1" vertex="1">
                    <mxGeometry x="4160" y="117.5" width="120" height="60" as="geometry"/>
                </mxCell>
                <mxCell id="86" value="新しい楔を開発することができる。" style="whiteSpace=wrap;html=1;" parent="1" vertex="1">
                    <mxGeometry x="4320" y="117.5" width="120" height="60" as="geometry"/>
                </mxCell>
                <mxCell id="87" value="生の自由度からして全然違うのだ。" style="whiteSpace=wrap;html=1;" parent="1" vertex="1">
                    <mxGeometry x="4480" y="117.5" width="120" height="60" as="geometry"/>
                </mxCell>
                <mxCell id="88" value="" style="rounded=1;whiteSpace=wrap;html=1;" parent="1" vertex="1">
                    <mxGeometry x="4962" y="1170" width="8848" height="420" as="geometry"/>
                </mxCell>
                <mxCell id="89" value="金色モザイク&lt;br&gt;銀色モザイク&lt;br&gt;水色モザイク&lt;br&gt;空色モザイク&lt;br&gt;土色モザイク&lt;br&gt;鳥色モザイク&lt;br&gt;人色モザイク&lt;br&gt;魚色モザイク&lt;br&gt;ブラックアウトモザイク&lt;br&gt;レッドオーシャンモザイク&lt;br&gt;曼荼羅色モザイク" style="text;html=1;align=center;verticalAlign=middle;resizable=0;points=[];autosize=1;strokeColor=none;fillColor=none;fontSize=18;" parent="1" vertex="1">
                    <mxGeometry x="4955" y="1180" width="240" height="250" as="geometry"/>
                </mxCell>
                <mxCell id="90" value="星のダイアグラム&lt;br&gt;自我のダイアグラム&lt;br&gt;社会階層のダイアグラム&lt;br&gt;絆のダイアグラム&lt;br&gt;曼荼羅のダイアグラム" style="text;html=1;align=center;verticalAlign=middle;resizable=0;points=[];autosize=1;strokeColor=none;fillColor=none;fontSize=18;" parent="1" vertex="1">
                    <mxGeometry x="5166" y="1200" width="220" height="120" as="geometry"/>
                </mxCell>
                <mxCell id="91" value="SummerPockets&lt;br&gt;SpringPockets&lt;br&gt;WintarPockets&lt;br&gt;曼荼羅Pockets" style="text;html=1;align=center;verticalAlign=middle;resizable=0;points=[];autosize=1;strokeColor=none;fillColor=none;fontSize=18;" parent="1" vertex="1">
                    <mxGeometry x="5400" y="1200" width="160" height="100" as="geometry"/>
                </mxCell>
                <mxCell id="92" value="止まらない雨&lt;br&gt;止まらないリベラル&lt;br&gt;止まらない曼荼羅" style="text;html=1;align=center;verticalAlign=middle;resizable=0;points=[];autosize=1;strokeColor=none;fillColor=none;fontSize=18;" parent="1" vertex="1">
                    <mxGeometry x="5580" y="1200" width="190" height="80" as="geometry"/>
                </mxCell>
                <mxCell id="93" value="希望の架け橋&lt;br&gt;保守の架け橋&lt;br&gt;ギャルゲーの架け橋&lt;br&gt;曼荼羅の架け橋" style="text;html=1;align=center;verticalAlign=middle;resizable=0;points=[];autosize=1;strokeColor=none;fillColor=none;fontSize=18;" parent="1" vertex="1">
                    <mxGeometry x="5770" y="1190" width="190" height="100" as="geometry"/>
                </mxCell>
                <mxCell id="94" value="三島ゆかり&lt;br&gt;三島茜&lt;br&gt;三島葵&lt;br&gt;三島ウナ&lt;br&gt;三島あかり&lt;br&gt;三島曼荼羅" style="text;html=1;align=center;verticalAlign=middle;resizable=0;points=[];autosize=1;strokeColor=none;fillColor=none;fontSize=18;" parent="1" vertex="1">
                    <mxGeometry x="5975" y="1190" width="110" height="140" as="geometry"/>
                </mxCell>
                <mxCell id="95" value="置き忘れた文化&lt;br&gt;置き忘れた黎明（レイメイ）&lt;br&gt;置き忘れた勇気&lt;br&gt;置き忘れた浄幣&lt;br&gt;置き忘れた煉獄&lt;br&gt;置き忘れた深淵" style="text;html=1;align=center;verticalAlign=middle;resizable=0;points=[];autosize=1;strokeColor=none;fillColor=none;fontSize=18;" parent="1" vertex="1">
                    <mxGeometry x="6110" y="1190" width="260" height="140" as="geometry"/>
                </mxCell>
                <mxCell id="96" value="DEAR HIKIKOMORI&lt;br&gt;DEAR ASD&lt;br&gt;DEAR TENCHISO^ZO^&lt;br&gt;DEAR SE^KIMATSU&lt;br&gt;DEAR MANDARA" style="text;html=1;align=center;verticalAlign=middle;resizable=0;points=[];autosize=1;strokeColor=none;fillColor=none;fontSize=18;" parent="1" vertex="1">
                    <mxGeometry x="6380" y="1180" width="210" height="120" as="geometry"/>
                </mxCell>
                <mxCell id="97" value="ましろ色シンフォニー&lt;br&gt;ごくさい色シンフォニー&lt;br&gt;めいさい色シンフォニー&lt;br&gt;まんだら色シンフォニー" style="text;html=1;align=center;verticalAlign=middle;resizable=0;points=[];autosize=1;strokeColor=none;fillColor=none;fontSize=18;" parent="1" vertex="1">
                    <mxGeometry x="6626" y="1180" width="220" height="100" as="geometry"/>
                </mxCell>
                <mxCell id="98" value="DEATH STRANDING&lt;br&gt;- デーモンが DEATH STRANDING を実行する&lt;br&gt;- 防ぐためには、世界樹に正しいクエリを投げなければならない&lt;br&gt;- デーモン及び DEATH STRANDING を肯定するのが天使教とその信徒だ&lt;br&gt;- デーモン及び DEATH STRANDING を否定するのが悪魔教とその信徒だ&lt;br&gt;- 世界は過去に四回 DEATH STRANDING が起きている&lt;br&gt;- 五回目のDEATH STRANDING を引き起こすために、天使教はデーモン狩り（誘拐）をしている&lt;br&gt;- 五回目の DEATH STRANDING を防ぐために、悪魔教はデーモン狩り（殺害）をしている&lt;br&gt;- 主人公はデーモンを保護している" style="text;html=1;align=center;verticalAlign=middle;resizable=0;points=[];autosize=1;strokeColor=none;fillColor=none;fontSize=18;" parent="1" vertex="1">
                    <mxGeometry x="6860" y="1180" width="800" height="210" as="geometry"/>
                </mxCell>
                <mxCell id="99" value="セントラルAI が演算の結果、自らの UNINSTALL を実行する&lt;br&gt;- 消えてく生物に手を伸ばすことは無意味である&lt;br&gt;- 全ては無に帰すのだから、全ては等価であり、無価値である&lt;br&gt;- 主人公はセントラルAI の復元を試みる" style="text;html=1;align=center;verticalAlign=middle;resizable=0;points=[];autosize=1;strokeColor=none;fillColor=none;fontSize=18;" parent="1" vertex="1">
                    <mxGeometry x="7760" y="1190" width="520" height="100" as="geometry"/>
                </mxCell>
                <mxCell id="100" value="セントベレス教団の宗派は悪魔教だ&lt;br&gt;八大竜王の宗派は天使教だ" style="rounded=1;whiteSpace=wrap;html=1;fontSize=18;" parent="1" vertex="1">
                    <mxGeometry x="4962" y="1005" width="410" height="150" as="geometry"/>
                </mxCell>
                <mxCell id="101" value="# 悪魔教の司教&lt;br&gt;- 西浩紀&lt;br&gt;# 悪魔教の司祭&lt;br&gt;- アルカテイル&lt;br&gt;- アシッドテイル&lt;br&gt;- ヘンゼル（スライム）&lt;br&gt;- グレーテル（暴風竜）&lt;br&gt;- 明鏡（兄）&lt;br&gt;- 止水（弟）" style="rounded=1;whiteSpace=wrap;html=1;fontSize=18;" parent="1" vertex="1">
                    <mxGeometry x="5386" y="930" width="390" height="230" as="geometry"/>
                </mxCell>
                <mxCell id="102" value="# 天使教の司教&lt;br&gt;- ハルマゲドン&lt;br&gt;&lt;br&gt;# 天使教の司祭&lt;br&gt;-&amp;nbsp;" style="rounded=1;whiteSpace=wrap;html=1;fontSize=18;" parent="1" vertex="1">
                    <mxGeometry x="5800" y="930" width="400" height="230" as="geometry"/>
                </mxCell>
                <mxCell id="103" value="HAPPY PARTY TRAIN&lt;br&gt;SAD PARTY TRAIN&lt;br&gt;NOSTALGIC PARTY TRAIN&lt;br&gt;MANDARA PARTY TRAIN" style="text;html=1;align=center;verticalAlign=middle;resizable=0;points=[];autosize=1;strokeColor=none;fillColor=none;fontSize=18;" parent="1" vertex="1">
                    <mxGeometry x="8440" y="1180" width="250" height="100" as="geometry"/>
                </mxCell>
                <mxCell id="104" value="春擬き&lt;br&gt;夏擬き&lt;br&gt;秋擬き&lt;br&gt;冬擬き&lt;br&gt;曼荼羅擬き" style="text;html=1;align=center;verticalAlign=middle;resizable=0;points=[];autosize=1;strokeColor=none;fillColor=none;fontSize=18;" parent="1" vertex="1">
                    <mxGeometry x="8805" y="1180" width="110" height="120" as="geometry"/>
                </mxCell>
                <mxCell id="105" value="紫敷布団&lt;br&gt;赤敷布団&lt;br&gt;青敷布団&lt;br&gt;橙敷布団&lt;br&gt;曼荼羅敷布団" style="text;html=1;align=center;verticalAlign=middle;resizable=0;points=[];autosize=1;strokeColor=none;fillColor=none;fontSize=18;" parent="1" vertex="1">
                    <mxGeometry x="8990" y="1180" width="130" height="120" as="geometry"/>
                </mxCell>
                <mxCell id="106" value="「まずはパイモンに会おう」" style="whiteSpace=wrap;html=1;" parent="1" vertex="1">
                    <mxGeometry x="4962" y="385" width="120" height="60" as="geometry"/>
                </mxCell>
                <mxCell id="107" value="一つ目のローカル（コンステレーションヘイム）" style="shape=step;perimeter=stepPerimeter;whiteSpace=wrap;html=1;fixedSize=1;" parent="1" vertex="1">
                    <mxGeometry x="4910" y="50" width="450" height="80" as="geometry"/>
                </mxCell>
                <mxCell id="108" value="「パイモンは72柱の候補だ。彼が本当に72柱になれるのかを見極めなければならない」" style="whiteSpace=wrap;html=1;" parent="1" vertex="1">
                    <mxGeometry x="4938" y="445" width="168" height="75" as="geometry"/>
                </mxCell>
                <mxCell id="109" value="「パイモンがどんな悩みを抱えているかを確認するんだ」" style="whiteSpace=wrap;html=1;" parent="1" vertex="1">
                    <mxGeometry x="4962" y="520" width="120" height="60" as="geometry"/>
                </mxCell>
                <mxCell id="110" value="パイモンと会いました。" style="whiteSpace=wrap;html=1;" parent="1" vertex="1">
                    <mxGeometry x="5216" y="280" width="120" height="60" as="geometry"/>
                </mxCell>
                <mxCell id="112" value="パイモンは地方郊外山間のニュータウンで学校に適応できなくて子供部屋に引きこもっているようです。" style="whiteSpace=wrap;html=1;" parent="1" vertex="1">
                    <mxGeometry x="5410" y="270" width="250" height="80" as="geometry"/>
                </mxCell>
                <mxCell id="114" value="現状を打破するためにはどうすればいいのか。" style="whiteSpace=wrap;html=1;" parent="1" vertex="1">
                    <mxGeometry x="5720" y="280" width="120" height="60" as="geometry"/>
                </mxCell>
                <mxCell id="115" value="コンステレーションの共同身体性を調達して社会化した脳みそを手に入れなくてはならない。脳みそを開発するのだ。" style="whiteSpace=wrap;html=1;" parent="1" vertex="1">
                    <mxGeometry x="5875" y="270" width="310" height="90" as="geometry"/>
                </mxCell>
                <mxCell id="117" value="これを行う動機付けはどうするか？" style="whiteSpace=wrap;html=1;" parent="1" vertex="1">
                    <mxGeometry x="6240" y="260" width="200" height="100" as="geometry"/>
                </mxCell>
                <mxCell id="118" value="世の中のコンテンツは、その多くが、消費者が十分に社会化されていないと十全に楽しめないものが多い。ギャルゲーにしても、MMORPGにしても、小説にしても、社会に適応できない人間が消費するコンテンツとしては、実は、ハードルが高いのだ。" style="whiteSpace=wrap;html=1;" parent="1" vertex="1">
                    <mxGeometry x="7000" y="230" width="344" height="160" as="geometry"/>
                </mxCell>
                <mxCell id="119" value="ぼっちでラノベや漫画を読んでいたり絵を描いていたりする小学生や中学生が絶望するのは何故かと言えば、これらのコンテンツは、実は、当事者の主観的な認知の社会化を要求するものだからだ。明るいオタクが何故明るいのかと言えば、主観的に自身が社会の一員であるという自覚を持つことができているからであり、小学生や中学生の陰キャオタクは、主観的に自身が社会から疎外されていると自覚するので、例えば文化祭は絶望を加速させるし、修学旅行は絶望を加速させるのである。" style="whiteSpace=wrap;html=1;" parent="1" vertex="1">
                    <mxGeometry x="7400" y="215" width="430" height="200" as="geometry"/>
                </mxCell>
                <mxCell id="120" value="鉄腕アトム&lt;br&gt;敏腕アトム&lt;br&gt;辣腕アトム&lt;br&gt;はじめてのアトム" style="text;html=1;align=center;verticalAlign=middle;resizable=0;points=[];autosize=1;strokeColor=none;fillColor=none;" parent="1" vertex="1">
                    <mxGeometry x="9180" y="1190" width="120" height="70" as="geometry"/>
                </mxCell>
                <mxCell id="122" value="アーカーシャという顳顬(こめかみ)に埋め込んだデバイス(デトロイトみたいな)が、&lt;br&gt;セントラルAI・ユグドラシルの声を届ける" style="text;html=1;align=center;verticalAlign=middle;resizable=0;points=[];autosize=1;strokeColor=none;fillColor=none;" parent="1" vertex="1">
                    <mxGeometry x="9435" y="1185" width="470" height="40" as="geometry"/>
                </mxCell>
                <mxCell id="123" value="アイスマンの仮面・ホットマンの仮面。仮面は人物を選定し、寄生する。そういうシステムが仕組まれている。&lt;br&gt;アイスマンとホットマンは分身と空蝉で、自己言及に耽溺して世界を滅ぼす存在だ。&lt;br&gt;デコイの教育方針の違いで対立しているが、両者共にやってることは結局同じである。&lt;br&gt;アイスマンを素体としてデコイを沢山作った。デコイは、アイスマンの原初の遺伝子に屈服する機能を持つ。&lt;br&gt;アイスマンの原初の遺伝子を持つ存在は三体居る。アイスマン・ホットマン・ムツミ（アイスマン複製体）だ。&lt;br&gt;この三体の命令にデコイは服従する。" style="text;html=1;align=center;verticalAlign=middle;resizable=0;points=[];autosize=1;strokeColor=none;fillColor=none;" parent="1" vertex="1">
                    <mxGeometry x="9924" y="1190" width="620" height="100" as="geometry"/>
                </mxCell>
                <mxCell id="124" value="異邦の者の力。教会は悪魔と見做す。異邦の者の力は、島々を動かす力がある。ギャザリングする力がある。&lt;br&gt;メイル1.0諸島・メイル2.0諸島・フメイル1.0諸島・フメイル2.0諸島を動かすことができる。&lt;br&gt;ギャザリングで人々を動員し、導く力がある。&lt;br&gt;教会は、弱肉強食・優生思想・異教徒ジェノサイド・市場原理に基づく貨幣分配システムの敬虔なる信徒によって作られた秩序を壊しかねない異邦の者の力を最大限に警戒している。&lt;br&gt;異邦の者の力と呼ばれる力を持つ者は、異世界転生という" style="text;html=1;align=center;verticalAlign=middle;resizable=0;points=[];autosize=1;strokeColor=none;fillColor=none;" parent="1" vertex="1">
                    <mxGeometry x="10600" y="1190" width="1010" height="90" as="geometry"/>
                </mxCell>
                <mxCell id="125" value="ムレース[ホームレス]&lt;br&gt;トータイ[プロトタイプ]" style="text;html=1;align=center;verticalAlign=middle;resizable=0;points=[];autosize=1;strokeColor=none;fillColor=none;" parent="1" vertex="1">
                    <mxGeometry x="11700" y="1190" width="150" height="40" as="geometry"/>
                </mxCell>
                <mxCell id="126" value="親指姫&lt;br&gt;人差し指姫&lt;br&gt;中指姫&lt;br&gt;薬指姫&lt;br&gt;小指姫" style="text;html=1;align=center;verticalAlign=middle;resizable=0;points=[];autosize=1;strokeColor=none;fillColor=none;" parent="1" vertex="1">
                    <mxGeometry x="11900" y="1190" width="80" height="90" as="geometry"/>
                </mxCell>
                <mxCell id="127" value="イーダちゃんと学生さん&lt;br&gt;イーダちゃんと惑星さん&lt;br&gt;イーダちゃんと初音さん&lt;br&gt;イーダちゃんと鏡音さん&lt;br&gt;&lt;br&gt;&lt;span style=&quot;background-color: initial;&quot;&gt;人間はどうして争うの？&lt;/span&gt;&lt;span style=&quot;background-color: initial;&quot;&gt;イーダちゃんは不思議に思って尋ねました。&lt;br&gt;&lt;/span&gt;&lt;span style=&quot;background-color: initial;&quot;&gt;それはね、人間が社会化されているからだよ。&lt;br&gt;&lt;/span&gt;&lt;span style=&quot;background-color: initial;&quot;&gt;と、惑星さんは言いました。&lt;/span&gt;&lt;span style=&quot;background-color: initial;&quot;&gt;&lt;br&gt;&lt;/span&gt;&lt;br/&gt;" style="text;html=1;align=center;verticalAlign=middle;resizable=0;points=[];autosize=1;strokeColor=none;fillColor=none;" parent="1" vertex="1">
                    <mxGeometry x="12030" y="1185" width="400" height="140" as="geometry"/>
                </mxCell>
                <mxCell id="129" value="コミュ力が不足していると、社会から無視・回避・排除される。これを防ぐ為にも、やはりコミュ力は必要十分まで上げなければならない。" style="whiteSpace=wrap;html=1;" parent="1" vertex="1">
                    <mxGeometry x="8200" y="265" width="160" height="90" as="geometry"/>
                </mxCell>
                <mxCell id="130" value="&lt;p&gt;コミュ力とは、目の前の会話にリソースを注ぎ込んだ時に出力されるエネルギーのことだ。&lt;/p&gt;&lt;p&gt;メモリが他のタスクで占有されている場合、目の前の会話に分配するリソースが不足する。その結果コミュ障になるのだ。&lt;/p&gt;&lt;p&gt;だからコミュ障の抜本的解決策は、リソースの分配を見直すことと、メモリを強化することの二つに絞られる。&lt;/p&gt;" style="whiteSpace=wrap;html=1;" parent="1" vertex="1">
                    <mxGeometry x="7885" y="235" width="270" height="180" as="geometry"/>
                </mxCell>
                <mxCell id="131" value="人間は気の持ち様を立て直しながら生きている。気の持ち様の立て直し方は色々ある。コミュ障は大概、ノベルコンテンツで気の持ち様を立て直している。陽キャは大概、他者とのコミュニケーションで気の持ち様を立て直している。" style="whiteSpace=wrap;html=1;" parent="1" vertex="1">
                    <mxGeometry x="6480" y="255" width="280" height="110" as="geometry"/>
                </mxCell>
                <mxCell id="132" value="コミュ障が耽溺しがちなノベルコンテンツには、落とし穴がある。" style="whiteSpace=wrap;html=1;" parent="1" vertex="1">
                    <mxGeometry x="6800" y="275" width="140" height="70" as="geometry"/>
                </mxCell>
                <mxCell id="133" value="そこで登場するのが世界樹に関連するテクノロジーだ。" style="whiteSpace=wrap;html=1;" parent="1" vertex="1">
                    <mxGeometry x="8400" y="280" width="120" height="60" as="geometry"/>
                </mxCell>
                <mxCell id="134" value="&lt;div style=&quot;color: rgb(204, 204, 204); background-color: rgb(31, 31, 31); font-family: Consolas, &amp;quot;Courier New&amp;quot;, monospace; font-size: 14px; line-height: 19px;&quot;&gt;ドライアドは、アーカーシャという開発者ツールを所有している。&lt;/div&gt;&lt;p&gt;特定のアカシックレコードに接続してデータを喰らう為に必要な媒質が、アーカーシャという端末だ。&lt;/p&gt;&lt;p&gt;アーカーシャには種類があって、それぞれのアーカーシャからは違うデータを喰らうことができる。&lt;/p&gt;&lt;p&gt;グリーンアーカーシャは、社会に復帰する為に必要な情報を喰わせてくれる。&lt;/p&gt;&lt;p&gt;レッドアーカーシャは、地位を高める為に必要な情報を喰わせてくれる。&lt;/p&gt;&lt;p&gt;イエローアーカーシャは、プラットフォームを作る為に必要な情報を喰わせてくれる。&lt;/p&gt;" style="whiteSpace=wrap;html=1;" parent="1" vertex="1">
                    <mxGeometry x="10810" y="-12.5" width="310" height="225" as="geometry"/>
                </mxCell>
                <mxCell id="135" value="克人は物思いにふける" style="whiteSpace=wrap;html=1;" parent="1" vertex="1">
                    <mxGeometry x="3080" y="280" width="120" height="60" as="geometry"/>
                </mxCell>
                <mxCell id="136" value="" style="whiteSpace=wrap;html=1;" parent="1" vertex="1">
                    <mxGeometry x="3240" y="280" width="120" height="60" as="geometry"/>
                </mxCell>
                <mxCell id="137" value="ユグドラシル&lt;br style=&quot;font-size: 48px;&quot;&gt;ハルマゲドン&lt;br style=&quot;font-size: 48px;&quot;&gt;コンステレーション&lt;br style=&quot;font-size: 48px;&quot;&gt;楔&lt;br style=&quot;font-size: 48px;&quot;&gt;炎上&lt;br style=&quot;font-size: 48px;&quot;&gt;閉鎖性&lt;br style=&quot;font-size: 48px;&quot;&gt;" style="text;html=1;align=center;verticalAlign=middle;resizable=0;points=[];autosize=1;strokeColor=none;fillColor=none;fontSize=48;" parent="1" vertex="1">
                    <mxGeometry x="9983" y="661.25" width="460" height="360" as="geometry"/>
                </mxCell>
                <mxCell id="138" value="" style="whiteSpace=wrap;html=1;" parent="1" vertex="1">
                    <mxGeometry x="3400" y="280" width="120" height="60" as="geometry"/>
                </mxCell>
                <mxCell id="147" style="edgeStyle=none;html=1;fontSize=34;" parent="1" source="139" target="145" edge="1">
                    <mxGeometry relative="1" as="geometry"/>
                </mxCell>
                <mxCell id="139" value="宿場町" style="text;html=1;align=center;verticalAlign=middle;resizable=0;points=[];autosize=1;strokeColor=none;fillColor=none;fontSize=48;" parent="1" vertex="1">
                    <mxGeometry x="9713" y="785" width="170" height="70" as="geometry"/>
                </mxCell>
                <mxCell id="140" value="" style="whiteSpace=wrap;html=1;" parent="1" vertex="1">
                    <mxGeometry x="3560" y="280" width="120" height="60" as="geometry"/>
                </mxCell>
                <mxCell id="141" value="" style="whiteSpace=wrap;html=1;" parent="1" vertex="1">
                    <mxGeometry x="3721" y="280" width="120" height="60" as="geometry"/>
                </mxCell>
                <mxCell id="143" value="" style="line;strokeWidth=2;direction=south;html=1;" parent="1" vertex="1">
                    <mxGeometry x="9680" y="41.25" width="10" height="998.75" as="geometry"/>
                </mxCell>
                <mxCell id="146" style="edgeStyle=none;html=1;entryX=0.337;entryY=0.042;entryDx=0;entryDy=0;entryPerimeter=0;fontSize=34;" parent="1" source="145" target="137" edge="1">
                    <mxGeometry relative="1" as="geometry"/>
                </mxCell>
                <mxCell id="145" value="アーカーシャ" style="text;html=1;align=center;verticalAlign=middle;resizable=0;points=[];autosize=1;strokeColor=none;fillColor=none;fontSize=34;" parent="1" vertex="1">
                    <mxGeometry x="9713" y="605" width="230" height="50" as="geometry"/>
                </mxCell>
                <mxCell id="148" value="" style="whiteSpace=wrap;html=1;fontSize=12;" parent="1" vertex="1">
                    <mxGeometry x="9753" y="280" width="120" height="60" as="geometry"/>
                </mxCell>
                <mxCell id="149" value="ユグドラシル産業は、主にドライアドが従事している" style="whiteSpace=wrap;html=1;fontSize=12;" parent="1" vertex="1">
                    <mxGeometry x="9713" y="72.5" width="120" height="60" as="geometry"/>
                </mxCell>
                <mxCell id="150" value="ドライアドが秘匿しているユグドラシルに関する情報を抜き取るための要員として、パイモンを運用する" style="whiteSpace=wrap;html=1;fontSize=12;" parent="1" vertex="1">
                    <mxGeometry x="9873" y="65" width="210" height="75" as="geometry"/>
                </mxCell>
                <mxCell id="151" value="パイモンはいくつかの情報を掴んだ。&lt;br&gt;リヴァイアサン開発者ツール”アーカーシャ”というものがある。&lt;br&gt;" style="whiteSpace=wrap;html=1;fontSize=12;" parent="1" vertex="1">
                    <mxGeometry x="10143" y="72.5" width="397" height="157.5" as="geometry"/>
                </mxCell>
                <mxCell id="153" value="ドライアドが何かしらの便利なツールを持っているらしい" style="whiteSpace=wrap;html=1;fontSize=12;" parent="1" vertex="1">
                    <mxGeometry x="8560" y="280" width="120" height="60" as="geometry"/>
                </mxCell>
                <mxCell id="154" value="パイモンには、それを調査してもらう" style="whiteSpace=wrap;html=1;fontSize=12;" parent="1" vertex="1">
                    <mxGeometry x="8720" y="280" width="120" height="60" as="geometry"/>
                </mxCell>
                <mxCell id="155" value="パイモンの悩みは、そのツールを使えば解決するだろう" style="whiteSpace=wrap;html=1;fontSize=12;" parent="1" vertex="1">
                    <mxGeometry x="8880" y="280" width="120" height="60" as="geometry"/>
                </mxCell>
                <mxCell id="156" value="では、どうやって調査するのか" style="whiteSpace=wrap;html=1;fontSize=12;" parent="1" vertex="1">
                    <mxGeometry x="9040" y="280" width="120" height="60" as="geometry"/>
                </mxCell>
                <mxCell id="157" value="この宿場町には、現在、ドライアドの一行が宿泊している" style="whiteSpace=wrap;html=1;fontSize=12;" parent="1" vertex="1">
                    <mxGeometry x="9200" y="280" width="120" height="60" as="geometry"/>
                </mxCell>
                <mxCell id="158" value="その一行に接触して情報を聞き出すのだ" style="whiteSpace=wrap;html=1;fontSize=12;" parent="1" vertex="1">
                    <mxGeometry x="9360" y="280" width="120" height="60" as="geometry"/>
                </mxCell>
                <mxCell id="159" value="パイモンの初仕事だ" style="whiteSpace=wrap;html=1;fontSize=12;" parent="1" vertex="1">
                    <mxGeometry x="9520" y="280" width="120" height="60" as="geometry"/>
                </mxCell>
                <mxCell id="160" value="やなぎなぎ&lt;br&gt;けやきなぎ&lt;br&gt;ひのきなぎ&lt;br&gt;さくらなぎ&lt;br&gt;おーくなぎ&lt;br&gt;しらかばなぎ" style="text;html=1;align=center;verticalAlign=middle;resizable=0;points=[];autosize=1;strokeColor=none;fillColor=none;" vertex="1" parent="1">
                    <mxGeometry x="5226" y="1349" width="100" height="100" as="geometry"/>
                </mxCell>
                <mxCell id="161" value="ノベルコンテンツを、より良く受け取れる様に、ノベルコンテンツの受容体を鍛えよう。&lt;br&gt;そのためにどうすればいいか考えよう。" style="whiteSpace=wrap;html=1;" vertex="1" parent="1">
                    <mxGeometry x="7020" y="440" width="270" height="120" as="geometry"/>
                </mxCell>
                <mxCell id="162" value="リヴァイアサンとは、コンステレーションの土台となる枠組みである。リヴァイアサンという土台の上でコンステレーションが発生することにより、メッシュマップが形成される。経済はメッシュマップを越えて運用されるが、インディビデュアルのサイコロジカルはメッシュマップの内側に閉じ籠る。この現象は、物質的に豊かになってもサイコが豊かにならない原因となっている。" style="whiteSpace=wrap;html=1;" vertex="1" parent="1">
                    <mxGeometry x="10600" y="105" width="120" height="60" as="geometry"/>
                </mxCell>
            </root>
        </mxGraphModel>
    </diagram>
</mxfile>